<?xml version="1.0" encoding="UTF-8" standalone="no"?>
<!DOCTYPE svg PUBLIC "-//W3C//DTD SVG 1.1//EN" "http://www.w3.org/Graphics/SVG/1.1/DTD/svg11.dtd">
<svg width="100%" height="100%" viewBox="0 0 188 158" version="1.1" xmlns="http://www.w3.org/2000/svg" xmlns:xlink="http://www.w3.org/1999/xlink" xml:space="preserve" xmlns:serif="http://www.serif.com/" style="fill-rule:evenodd;clip-rule:evenodd;stroke-linecap:round;stroke-linejoin:round;stroke-miterlimit:1.5;">
    <g transform="matrix(1,0,0,1,-506,-221)">
        <g id="ico-outline">
            <path id="ratemylandlord-icon" d="M565,375L530,375L530,285L510,285L600,225L690,285L670,285L670,375L635,375L635,355C635,325 615,325 600,325C585,325 565,325 565,355L565,375Z" style="fill:white;stroke:black;stroke-width:8px;"/>
            <g id="ratemylandlord-icon1" serif:id="ratemylandlord-icon">
                <circle cx="600" cy="285" r="22.5" style="fill:white;"/>
                <path d="M600,254.5C616.833,254.5 630.5,268.167 630.5,285C630.5,301.833 616.833,315.5 600,315.5C583.167,315.5 569.5,301.833 569.5,285C569.5,268.167 583.167,254.5 600,254.5ZM600,262.5C587.582,262.5 577.5,272.582 577.5,285C577.5,297.418 587.582,307.5 600,307.5C612.418,307.5 622.5,297.418 622.5,285C622.5,272.582 612.418,262.5 600,262.5Z"/>
            </g>
        </g>
    </g>
</svg>
