<?xml version="1.0" encoding="UTF-8" standalone="no"?>
<!DOCTYPE svg PUBLIC "-//W3C//DTD SVG 1.1//EN" "http://www.w3.org/Graphics/SVG/1.1/DTD/svg11.dtd">
<svg width="100%" height="100%" viewBox="0 0 189 158" version="1.1" xmlns="http://www.w3.org/2000/svg" xmlns:xlink="http://www.w3.org/1999/xlink" xml:space="preserve" xmlns:serif="http://www.serif.com/" style="fill-rule:evenodd;clip-rule:evenodd;stroke-linejoin:round;stroke-miterlimit:2;">
    <g transform="matrix(1,0,0,1,-306,-221)">
        <g id="ico" transform="matrix(1,0,0,1,-200,0)">
            <path d="M565,379L530,379C527.791,379 526,377.209 526,375L526,289L510,289C508.237,289 506.682,287.846 506.172,286.159C505.661,284.472 506.315,282.65 507.781,281.672L597.781,221.672C599.125,220.776 600.875,220.776 602.219,221.672L692.219,281.672C693.685,282.65 694.339,284.472 693.828,286.159C693.318,287.846 691.763,289 690,289L674,289L674,375C674,377.209 672.209,379 670,379L635,379C632.791,379 631,377.209 631,375L631,355C631,344.565 628.498,338.21 624.324,334.453C617.86,328.636 608.08,329 600,329C591.92,329 582.14,328.636 575.676,334.453C571.502,338.21 569,344.565 569,355L569,375C569,377.209 567.209,379 565,379ZM600,258.5C585.374,258.5 573.5,270.374 573.5,285C573.5,299.626 585.374,311.5 600,311.5C614.626,311.5 626.5,299.626 626.5,285C626.5,270.374 614.626,258.5 600,258.5Z"/>
        </g>
    </g>
</svg>
