<svg width="40" height="40" viewBox="0 0 40 40" fill="none" xmlns="http://www.w3.org/2000/svg">
<path d="M18.0979 3.52332C18.6966 1.6807 21.3034 1.6807 21.9021 3.52332L24.9393 12.8708C25.207 13.6949 25.975 14.2528 26.8414 14.2528H36.67C38.6074 14.2528 39.413 16.732 37.8456 17.8708L29.8941 23.6479C29.1931 24.1572 28.8998 25.06 29.1675 25.884L32.2047 35.2315C32.8034 37.0741 30.6945 38.6064 29.127 37.4676L21.1756 31.6905C20.4746 31.1812 19.5254 31.1812 18.8244 31.6905L10.8729 37.4676C9.30552 38.6064 7.19656 37.0741 7.79526 35.2315L10.8325 25.884C11.1002 25.06 10.8069 24.1572 10.1059 23.6479L2.15444 17.8708C0.587008 16.732 1.39256 14.2528 3.33 14.2528H13.1586C14.025 14.2528 14.7929 13.6949 15.0607 12.8708L18.0979 3.52332Z" fill="black"/>
</svg>
