<?xml version="1.0" encoding="UTF-8" standalone="no"?><!DOCTYPE svg PUBLIC "-//W3C//DTD SVG 1.1//EN" "http://www.w3.org/Graphics/SVG/1.1/DTD/svg11.dtd"><svg width="100%" height="100%" viewBox="0 0 180 150" version="1.1" xmlns="http://www.w3.org/2000/svg" xmlns:xlink="http://www.w3.org/1999/xlink" xml:space="preserve" xmlns:serif="http://www.serif.com/" style="fill-rule:evenodd;clip-rule:evenodd;stroke-linejoin:round;stroke-miterlimit:2;"><path d="M55,150l-35,-0l0,-90l-20,0l90,-60l90,60l-20,-0l-0,90l-35,-0l-0,-20c-0,-30 -20,-30 -35,-30c-15,-0 -35,-0 -35,30l-0,20Zm35,-110c-13.798,-0 -25,11.202 -25,25c-0,13.798 11.202,25 25,25c13.798,-0 25,-11.202 25,-25c-0,-13.798 -11.202,-25 -25,-25Z"/></svg>