<?xml version="1.0" encoding="UTF-8" standalone="no"?>
<!DOCTYPE svg PUBLIC "-//W3C//DTD SVG 1.1//EN" "http://www.w3.org/Graphics/SVG/1.1/DTD/svg11.dtd">
<svg width="100%" height="100%" viewBox="0 0 148 148" version="1.1" xmlns="http://www.w3.org/2000/svg" xmlns:xlink="http://www.w3.org/1999/xlink" xml:space="preserve" xmlns:serif="http://www.serif.com/" style="fill-rule:evenodd;clip-rule:evenodd;stroke-linecap:round;stroke-linejoin:round;stroke-miterlimit:1.5;">
    <g transform="matrix(1,0,0,1,-926,-226)">
        <g transform="matrix(1,0,0,1,-20,-10)">
            <g>
                <path d="M1050,240L1050,380L950,380L950,270L980,240L1050,240Z" style="fill:white;stroke:black;stroke-width:8px;"/>
                <path d="M980,240L980,270L950,270" style="fill:none;stroke:black;stroke-width:8px;"/>
            </g>
            <g>
                <g transform="matrix(1,0,0,1,2.27374e-13,-25)">
                    <path d="M970,320L1030,320" style="fill:none;stroke:black;stroke-width:8px;"/>
                </g>
                <g transform="matrix(1,0,0,1,0,-20)">
                    <path d="M970,340L1030,340" style="fill:none;stroke:black;stroke-width:8px;"/>
                </g>
                <g transform="matrix(0.5,0,0,1,485,-15)">
                    <path d="M970,360L1030,360" style="fill:none;stroke:black;stroke-width:10.12px;"/>
                </g>
            </g>
            <g transform="matrix(1,0,0,1,-10,15)">
                <path d="M1020,300L1080,240L1100,260L1040,320L1020,300Z" style="fill:white;stroke:black;stroke-width:8px;"/>
                <path d="M1020,300L1010,330L1040,320L1020,300Z" style="fill:white;stroke:black;stroke-width:8px;"/>
            </g>
        </g>
    </g>
</svg>
