<svg width="38" height="36" viewBox="0 0 38 36" fill="none" xmlns="http://www.w3.org/2000/svg">
<path d="M17.0979 1.52332C17.6966 -0.319297 20.3034 -0.319299 20.9021 1.52332L23.9393 10.8708C24.207 11.6949 24.975 12.2528 25.8414 12.2528H35.67C37.6074 12.2528 38.413 14.732 36.8456 15.8708L28.8941 21.6479C28.1931 22.1572 27.8998 23.06 28.1675 23.884L31.2047 33.2315C31.8034 35.0741 29.6945 36.6064 28.127 35.4676L20.1756 29.6905C19.4746 29.1812 18.5254 29.1812 17.8244 29.6905L9.87295 35.4676C8.30552 36.6064 6.19656 35.0741 6.79526 33.2315L9.83245 23.884C10.1002 23.06 9.80689 22.1572 9.10591 21.6479L1.15444 15.8708C-0.412992 14.732 0.392558 12.2528 2.33 12.2528H12.1586C13.025 12.2528 13.7929 11.6949 14.0607 10.8708L17.0979 1.52332Z" fill="#FFCC00"/>
</svg>
